<svg xmlns="http://www.w3.org/2000/svg" width="228" height="120" viewBox="0 0 228 120" fill="none">
    <path d="M0 0H228V120H0V0Z" fill="#21262D"/>
    <rect opacity="0.8" x="29" y="54" width="144" height="53" rx="2" fill="#30363D"/>
    <rect opacity="0.8" x="184" y="54" width="32" height="36" rx="2" fill="#30363D"/>
    <rect x="29" y="59" width="144" height="12" fill="#32423D"/>
    <path d="M0 0H228V23H0V0Z" fill="#30363D"/>
    <rect x="13" y="9" width="32" height="6" rx="3" fill="#484F58"/>
    <rect x="29" y="36" width="48" height="6" rx="3" fill="#30363D"/>
    <rect opacity="0.7" x="34" y="62" width="64" height="6" rx="3" fill="#57AB5A"/>
    <rect opacity="0.7" x="210" y="36" width="6" height="6" rx="1" fill="#ff9900"/>
    <rect opacity="0.7" x="202" y="36" width="6" height="6" rx="1" fill="#401487"/>
    <rect x="53" y="9" width="32" height="6" rx="3" fill="#484F58"/>
    <rect x="93" y="9" width="32" height="6" rx="3" fill="#484F58"/>
    <script xmlns=""/>
</svg>